<?xml version="1.0" encoding="utf-8"?>
<!-- Generator: Adobe Illustrator 14.0.0, SVG Export Plug-In . SVG Version: 6.00 Build 43363)  -->
<!DOCTYPE svg PUBLIC "-//W3C//DTD SVG 1.1//EN" "http://www.w3.org/Graphics/SVG/1.1/DTD/svg11.dtd">
<svg version="1.1" id="Camada_1" xmlns="http://www.w3.org/2000/svg" xmlns:xlink="http://www.w3.org/1999/xlink" x="0px" y="0px"
	 width="51.875px" height="45.156px" viewBox="0 0 51.875 45.156" enable-background="new 0 0 51.875 45.156" xml:space="preserve">
<path fill="#548DCA" d="M9.738,20.044c0,1.688,0.321,3.416,0.96,5.183c0.641,1.766,1.625,3.674,2.956,5.719
	c0.768,1.076,1.895,2.484,3.378,4.224c2.355,2.765,3.532,4.812,3.532,6.142c0,0.922-0.371,1.729-1.113,2.42
	c-0.741,0.689-1.624,1.035-2.649,1.035c-1.482,0-3.211-1.022-5.182-3.07c-1.969-2.047-4.132-5.066-6.487-9.06
	c-1.585-2.712-2.764-5.425-3.53-8.139c-0.769-2.712-1.152-5.5-1.152-8.368c0-4.913,1.025-8.764,3.071-11.554
	c2.048-2.789,4.837-4.184,8.369-4.184c2.969,0,5.335,0.909,7.102,2.726c1.766,1.817,2.648,4.21,2.648,7.177
	c0,2.868-0.884,5.029-2.648,6.488c-1.766,1.458-4.338,2.188-7.716,2.188H9.738V20.044z M39.45,20.044
	c0,1.688,0.32,3.416,0.959,5.183c0.641,1.766,1.626,3.674,2.956,5.719c0.768,1.025,1.842,2.381,3.224,4.07
	c2.355,2.866,3.532,4.965,3.532,6.295c0,0.922-0.371,1.728-1.113,2.418c-0.74,0.69-1.624,1.037-2.647,1.037
	c-1.484,0-3.198-1.023-5.145-3.072c-1.943-2.045-4.118-5.065-6.525-9.059c-1.535-2.609-2.673-5.271-3.416-7.984
	c-0.742-2.711-1.113-5.552-1.113-8.521c0-4.913,0.998-8.764,2.994-11.554c1.996-2.789,4.786-4.184,8.368-4.184
	c2.917,0,5.297,0.921,7.14,2.764c1.842,1.842,2.765,4.222,2.765,7.139c0,2.868-0.896,5.029-2.688,6.488
	c-1.791,1.458-4.376,2.188-7.754,2.188H39.45V20.044z"/>
</svg>
