<?xml version="1.0" encoding="utf-8"?>
<!-- Generator: Adobe Illustrator 14.0.0, SVG Export Plug-In . SVG Version: 6.00 Build 43363)  -->
<!DOCTYPE svg PUBLIC "-//W3C//DTD SVG 1.1//EN" "http://www.w3.org/Graphics/SVG/1.1/DTD/svg11.dtd">
<svg version="1.1" id="Capa_1" xmlns="http://www.w3.org/2000/svg" xmlns:xlink="http://www.w3.org/1999/xlink" x="0px" y="0px"
	 width="438.529px" height="438.529px" viewBox="0 0 438.529 438.529" enable-background="new 0 0 438.529 438.529"
	 xml:space="preserve">
<g>
	<path d="M387.209,424.213v-52.861L273.778,336.11l-58.367,23.127v64.976h-11.014v-52.861L90.966,336.11l-58.368,23.127v64.976
		H8.371v14.316h421.788v-14.316H387.209z M110.79,424.213v-41.849l56.164,22.025v19.823H110.79z M293.601,424.213v-41.849
		l56.164,22.025v19.823H293.601z"/>
	<polygon points="83.257,320.693 196.688,359.237 196.688,339.965 94.27,300.87 77.75,300.87 32.598,329.503 32.598,348.225 
		42.51,348.225 	"/>
	<polygon points="83.257,289.307 196.688,327.852 196.688,308.578 94.27,269.484 77.75,269.484 32.598,298.117 32.598,316.839 
		42.51,316.839 	"/>
	<polygon points="83.257,253.516 196.688,292.061 196.688,272.787 94.27,233.691 77.75,233.691 32.598,262.325 32.598,281.047 
		42.51,281.047 	"/>
	<polygon points="83.257,222.129 196.688,260.673 196.688,241.401 94.27,202.306 77.75,202.306 32.598,230.939 32.598,249.66 
		42.51,249.66 	"/>
	<polygon points="83.257,186.337 196.688,224.882 196.688,205.609 94.27,166.515 77.75,166.515 32.598,195.148 32.598,213.869 
		42.51,213.869 	"/>
	<polygon points="83.257,154.951 196.688,193.496 196.688,174.223 94.27,135.128 77.75,135.128 32.598,163.761 32.598,182.483 
		42.51,182.483 	"/>
	<polygon points="83.257,119.16 196.688,157.705 196.688,138.432 94.27,99.336 77.75,99.336 32.598,127.97 32.598,146.691 
		42.51,146.691 	"/>
	<polygon points="83.257,87.773 196.688,126.318 196.688,107.045 94.27,67.95 77.75,67.95 32.598,96.583 32.598,115.305 
		42.51,115.305 	"/>
	<polygon points="83.257,51.982 196.688,90.526 196.688,71.254 94.27,32.159 77.75,32.159 32.598,60.792 32.598,79.514 
		42.51,79.514 	"/>
	<polygon points="83.257,20.596 196.688,59.14 196.688,39.868 94.27,0.772 77.75,0.772 32.598,29.406 32.598,48.127 42.51,48.127 	
		"/>
	<polygon points="269.923,320.693 383.355,359.237 383.355,339.965 280.936,300.87 264.417,300.87 219.265,329.503 219.265,348.225 
		229.176,348.225 	"/>
	<polygon points="269.923,289.307 383.355,327.852 383.355,308.578 280.936,269.484 264.417,269.484 219.265,298.117 
		219.265,316.839 229.176,316.839 	"/>
	<polygon points="269.923,253.516 383.355,292.061 383.355,272.787 280.936,233.691 264.417,233.691 219.265,262.325 
		219.265,281.047 229.176,281.047 	"/>
	<polygon points="269.923,222.129 383.355,260.673 383.355,241.401 280.936,202.306 264.417,202.306 219.265,230.939 
		219.265,249.66 229.176,249.66 	"/>
	<polygon points="269.923,186.337 383.355,224.882 383.355,205.609 280.936,166.515 264.417,166.515 219.265,195.148 
		219.265,213.869 229.176,213.869 	"/>
	<polygon points="269.923,154.951 383.355,193.496 383.355,174.223 280.936,135.128 264.417,135.128 219.265,163.761 
		219.265,182.483 229.176,182.483 	"/>
	<polygon points="269.923,119.16 383.355,157.705 383.355,138.432 280.936,99.336 264.417,99.336 219.265,127.97 219.265,146.691 
		229.176,146.691 	"/>
	<polygon points="269.923,87.773 383.355,126.318 383.355,107.045 280.936,67.95 264.417,67.95 219.265,96.583 219.265,115.305 
		229.176,115.305 	"/>
	<polygon points="269.923,51.982 383.355,90.526 383.355,71.254 280.936,32.159 264.417,32.159 219.265,60.792 219.265,79.514 
		229.176,79.514 	"/>
	<polygon points="269.923,20.596 383.355,59.14 383.355,39.868 280.936,0.772 264.417,0.772 219.265,29.406 219.265,48.127 
		229.176,48.127 	"/>
</g>
</svg>
