<?xml version="1.0" encoding="utf-8"?>
<!-- Generator: Adobe Illustrator 14.0.0, SVG Export Plug-In . SVG Version: 6.00 Build 43363)  -->
<!DOCTYPE svg PUBLIC "-//W3C//DTD SVG 1.1//EN" "http://www.w3.org/Graphics/SVG/1.1/DTD/svg11.dtd">
<svg version="1.1" id="Capa_1" xmlns="http://www.w3.org/2000/svg" xmlns:xlink="http://www.w3.org/1999/xlink" x="0px" y="0px"
	 width="731.445px" height="595.281px" viewBox="0 0 731.445 595.281" enable-background="new 0 0 731.445 595.281"
	 xml:space="preserve">
<g>
	<path d="M720.823,283.584c0-42.338-58.628-75.742-132.857-75.742c-20.757,0-39.314,2.2-56.428,7.423v-57.872
		c0-0.756,0-1.512,0-2.199c0-0.756,0-1.513,0-2.2V75.742C531.538,33.403,472.91,0,398.68,0c-74.986,0-133.613,33.403-133.613,75.742
		v75.742c0,0.756,0,1.512,0,2.199c0,0.756,0,1.513,0,2.2v75.741c0,0.756,0,1.513,0,2.2s0,1.512,0,2.199v75.743
		c0,0.756,0,1.512,0,2.199c0,0.686,0,1.512,0,2.199v76.428c0,42.338,58.627,75.742,132.857,75.742
		c20.07,0,39.313-2.199,56.428-6.666v57.871c0,42.338,58.628,75.74,132.857,75.74c74.23,0,132.857-33.402,132.857-75.74v-75.605
		c0-0.756,0-1.512,0-2.199c0-0.756,0-1.512,0-2.199v-75.742c0-0.756,0-1.512,0-2.199c0-0.756,0-1.512,0-2.199v-75.81H720.823z
		 M299.982,127.702c0.756,0.756,2.2,1.513,2.956,1.513c2.956,2.199,6.667,3.711,10.378,5.224l0,0
		c3.711,1.512,7.423,2.956,11.134,4.467c1.512,0.756,2.956,0.756,3.711,1.512c2.956,0.756,5.224,1.513,8.179,2.956
		c1.513,0.756,2.956,0.756,5.224,1.512c2.956,0.756,5.224,1.512,8.179,2.2c1.513,0.756,3.711,0.756,5.224,0.756
		c2.956,0.756,5.911,0.756,8.935,1.513c1.512,0,3.711,0.756,5.223,0.756c2.956,0.756,6.667,0.756,9.623,0.756
		c1.513,0,2.956,0,4.468,0.756c5.223,0,9.623,0.756,14.846,0.756c5.224,0,10.378,0,14.846-0.756c1.513,0,2.956,0,4.468-0.756
		c2.956,0,6.667-0.756,9.622-0.756c1.513,0,3.711-0.756,5.224-0.756c2.956-0.756,5.911-0.756,8.935-1.513
		c1.513,0,3.711-0.756,5.225-0.756c2.955-0.756,5.223-1.513,8.179-2.2c1.513-0.756,2.956-0.756,5.224-1.512
		c2.955-0.756,5.224-1.513,8.18-2.956c1.512-0.756,2.955-0.756,3.711-1.512c3.711-1.513,7.423-2.956,11.134-4.467l0,0
		c3.712-1.513,6.667-3.711,10.378-5.224c0.757-0.756,2.199-1.513,2.956-1.513c2.199-1.512,4.467-2.956,6.667-4.467
		c0,0,0.756-0.756,1.512-0.756v28.936c0,23.025-43.025,48.25-105.434,48.25c-62.408,0-105.434-25.224-105.434-48.25v-28.937
		c0,0,0.756,0.756,1.512,0.756C295.515,124.747,297.714,126.259,299.982,127.702z M526.382,350.392
		c1.513,0.756,2.956,0.756,5.224,1.512c2.956,0.756,5.224,1.512,8.18,2.199c1.513,0.756,3.711,0.756,5.224,0.756
		c2.956,0.756,5.91,0.756,8.935,1.514c1.513,0,3.711,0.756,5.224,0.756c2.956,0.756,6.667,0.756,9.623,0.756
		c1.511,0,2.955,0,4.467,0.756c5.224,0,9.623,0.756,14.847,0.756s10.378,0,14.846-0.756c1.512,0,2.956,0,4.468-0.756
		c2.955,0,6.666-0.756,9.622-0.756c1.512,0,3.711-0.756,5.224-0.756c2.956-0.758,5.91-0.758,8.935-1.514
		c1.512,0,3.711-0.756,5.224-0.756c2.956-0.756,5.224-1.512,8.18-2.199c1.512-0.756,2.955-0.756,5.224-1.512
		c2.955-0.758,5.224-1.514,8.179-2.957c1.513-0.756,2.956-0.756,3.712-1.512c3.711-1.512,7.423-2.955,11.135-4.467l0,0
		c3.711-1.514,6.667-3.711,10.378-5.225c0.757-0.756,2.2-1.512,2.956-1.512c2.199-1.514,4.468-2.957,6.667-4.469
		c0,0,0.756-0.756,1.513-0.756v28.938c0,23.023-43.026,48.248-105.435,48.248c-26.736,0-50.448-4.467-68.318-11.891
		c0,0-0.756,0-0.756-0.756c-20.07-8.18-33.403-20.068-36.359-31.203c0,0,0,0,0-0.756c0-0.758,0-1.514,0-2.199l0,0v-31.205
		c1.513,0.756,2.199,1.512,3.711,2.955l0,0c0,0,0,0,0.757,0c0.756,0,0.756,0.758,1.513,0.758l0,0
		c1.512,0.756,2.199,1.512,3.711,2.199l0,0c1.512,0.756,2.199,1.512,3.711,2.199h0.756c0.757,0,0.757,0.756,1.513,0.756
		c2.956,1.512,5.911,2.955,9.623,4.467l0,0c0.756,0,1.512,0.758,2.199,0.758c1.513,0.756,3.711,1.512,5.224,2.199
		c1.512,0.756,2.199,0.756,3.711,1.512C520.403,348.949,523.359,349.703,526.382,350.392z M455.109,352.66
		c-17.046,5.223-36.359,8.18-56.429,8.18c-62.338,0-105.433-25.225-105.433-48.25v-28.937
		c24.468,17.802,62.34,28.937,105.434,28.937c20.07,0,39.314-2.199,56.428-6.668V352.66L455.109,352.66z M693.399,439.466
		c0,23.025-43.025,48.25-105.434,48.25c-60.14,0-103.165-23.781-105.435-46.051l0,0v-31.203c5.911,4.467,12.647,8.18,20.07,11.891
		l0,0c1.513,0.756,2.199,1.512,3.711,1.512c0.757,0,1.513,0.756,2.199,0.756c22.27,8.936,49.006,14.848,79.454,14.848
		c43.781,0,81.652-11.135,105.434-28.938V439.466z M464.731,253.893c-1.513,1.512-2.199,3.711-3.711,5.224
		c-0.757,0.756-0.757,1.512-1.513,2.956c-0.756,1.512-1.512,2.956-1.512,3.711c-0.757,1.513-0.757,2.956-1.514,3.711
		c0,0.756-0.756,0.756-0.756,1.512c-17.045,5.911-37.114,8.935-57.871,8.935c-62.339,0-105.433-25.224-105.433-48.25v-28.936
		c24.468,17.801,62.339,28.936,105.434,28.936s81.651-11.134,105.434-28.936v20.757c-17.046,7.423-30.448,17.801-38.627,28.936
		C465.486,253.893,464.731,253.893,464.731,253.893z M693.399,283.584c0,23.024-43.025,48.249-105.434,48.249
		c-28.937,0-53.474-5.223-71.274-13.334l0,0c-2.199-0.756-4.468-2.199-6.667-2.955l0,0l0,0l0,0c0,0-0.756,0-0.756-0.756
		c0,0,0,0-0.757,0l-2.955-1.512c-1.513-1.514-2.199-2.201-2.956-2.201l0,0c0,0-0.756,0-0.756-0.756c0,0,0,0-0.757,0
		c-1.512-0.756-2.955-2.199-4.467-3.711l0,0c0,0,0,0-0.757,0l0,0c-0.756-0.756-1.512-1.512-2.199-2.199l0,0
		c-0.756-0.756-1.513-1.512-2.199-1.512l0,0l0,0l0,0c-0.757-0.758-1.513-1.514-2.2-2.201c-0.756-0.756-1.512-1.512-1.512-2.199l0,0
		l0,0c-0.756-0.755-0.756-1.512-1.513-2.199c-0.756-0.756-0.756-1.513-1.513-2.2l0,0c-1.512-2.956-2.199-5.224-2.199-8.179l0,0l0,0
		c0-0.756,0-1.512,0-1.512l0,0l0,0c0-1.513,0-2.956,0.756-5.224l0,0c3.712-11.891,17.802-23.025,39.314-31.204h0.757
		c17.801-6.667,39.313-11.134,65.294-11.134C650.304,235.335,693.399,260.628,693.399,283.584z M397.924,27.493
		c62.339,0,105.434,25.224,105.434,48.25s-43.026,48.25-105.434,48.25c-62.408,0-105.434-25.224-105.434-48.25
		C292.56,53.473,335.584,27.493,397.924,27.493z M292.56,392.73v-28.938c24.468,17.803,62.339,28.938,105.433,28.938
		c20.07,0,39.313-2.199,56.429-6.668v47.494c-17.047,5.223-36.36,8.18-56.429,8.18C335.584,440.98,292.56,415.753,292.56,392.73z
		 M693.399,519.675c0,23.025-43.025,48.25-105.434,48.25s-105.435-25.225-105.435-48.25V490.74
		c24.469,17.801,62.339,28.936,105.435,28.936c43.095,0,81.652-11.135,105.434-28.936V519.675z"/>
</g>
<g>
	<path d="M91.772,276.921c1.513,0.756,2.956,0.756,5.224,1.512c2.956,0.756,5.224,1.512,8.18,2.199
		c1.513,0.756,3.711,0.756,5.224,0.756c2.956,0.756,5.91,0.756,8.935,1.514c1.513,0,3.711,0.756,5.224,0.756
		c2.956,0.756,6.667,0.756,9.623,0.756c1.511,0,2.955,0,4.467,0.756c5.224,0,9.623,0.756,14.847,0.756s10.378,0,14.846-0.756
		c1.512,0,2.956,0,4.468-0.756c2.955,0,6.666-0.756,9.622-0.756c1.512,0,3.711-0.756,5.224-0.756
		c2.956-0.758,5.91-0.758,8.935-1.514c1.512,0,3.711-0.756,5.224-0.756c2.956-0.756,5.224-1.512,8.18-2.199
		c1.512-0.756,2.955-0.756,5.224-1.512c2.955-0.758,5.224-1.514,8.179-2.957c1.513-0.756,2.956-0.756,3.712-1.512
		c3.711-1.512,7.423-2.955,11.135-4.467l0,0c3.711-1.514,6.667-3.711,10.378-5.225c0.757-0.756,2.2-1.512,2.956-1.512
		c2.199-1.514,4.468-2.957,6.667-4.469c0,0,0.756-0.756,1.513-0.756v28.938c0,23.023-43.026,48.248-105.435,48.248
		c-26.736,0-50.448-4.467-68.318-11.891c0,0-0.756,0-0.756-0.756c-20.07-8.18-33.403-20.068-36.359-31.203c0,0,0,0,0-0.756
		c0-0.758,0-1.514,0-2.199l0,0v-31.205c1.513,0.756,2.199,1.512,3.711,2.955l0,0c0,0,0,0,0.757,0c0.756,0,0.756,0.758,1.513,0.758
		l0,0c1.512,0.756,2.199,1.512,3.711,2.199l0,0c1.512,0.756,2.199,1.512,3.711,2.199h0.756c0.757,0,0.757,0.756,1.513,0.756
		c2.956,1.512,5.911,2.955,9.623,4.467l0,0c0.756,0,1.512,0.758,2.199,0.758c1.513,0.756,3.711,1.512,5.224,2.199
		c1.512,0.756,2.199,0.756,3.711,1.512C85.792,275.478,88.749,276.232,91.772,276.921z M258.789,365.996
		c0,23.025-43.025,48.25-105.434,48.25c-60.14,0-103.165-23.781-105.435-46.051l0,0v-31.203c5.911,4.467,12.647,8.18,20.07,11.891
		l0,0c1.513,0.756,2.199,1.512,3.711,1.512c0.757,0,1.513,0.756,2.199,0.756c22.27,8.936,49.006,14.848,79.454,14.848
		c43.781,0,81.652-11.135,105.434-28.938V365.996z M19.742,446.068c0,42.338,58.628,75.74,132.857,75.74
		c74.23,0,132.857-33.402,132.857-75.74v-75.605c0-0.756,0-1.512,0-2.199c0-0.756,0-1.512,0-2.199v-75.742c0-0.756,0-1.512,0-2.199
		c0-0.756,0-1.512,0-2.199v-75.81h0.756c0-42.338-58.628-75.742-132.857-75.742c-20.757,0-39.314,2.2-56.428,7.423l-28.248,8.248
		c-17.046,7.423-30.448,17.801-38.627,28.936c0.823,1.443,0.068,1.443,0.068,1.443c-1.513,1.512-2.199,3.711-3.711,5.224
		c-0.757,0.756-0.757,1.512-1.513,2.956c-0.756,1.512-1.512,2.956-1.512,3.711c-0.757,1.513-0.757,2.956-1.514,3.711
		c0,0.756-0.756,0.756-0.756,1.512L19.742,446.068z M258.789,210.114c0,23.024-43.025,48.249-105.434,48.249
		c-28.937,0-53.474-5.223-71.274-13.334l0,0c-2.199-0.756-4.468-2.199-6.667-2.955l0,0l0,0l0,0c0,0-0.756,0-0.756-0.756
		c0,0,0,0-0.757,0l-2.955-1.512c-1.513-1.514-2.199-2.201-2.956-2.201l0,0c0,0-0.756,0-0.756-0.756c0,0,0,0-0.757,0
		c-1.512-0.756-2.955-2.199-4.467-3.711l0,0c0,0,0,0-0.757,0l0,0c-0.756-0.756-1.512-1.512-2.199-2.199l0,0
		c-0.756-0.756-1.513-1.512-2.199-1.512l0,0l0,0l0,0c-0.757-0.758-1.513-1.514-2.2-2.201c-0.756-0.756-1.512-1.512-1.512-2.199l0,0
		l0,0c-0.756-0.755-0.756-1.512-1.513-2.199c-0.756-0.756-0.756-1.513-1.513-2.2l0,0c-1.512-2.956-2.199-5.224-2.199-8.179l0,0l0,0
		c0-0.756,0-1.512,0-1.512l0,0l0,0c0-1.513,0-2.956,0.756-5.224l0,0c3.712-11.891,17.802-23.025,39.314-31.204h0.757
		c17.801-6.667,39.313-11.134,65.294-11.134C215.694,161.864,258.789,187.157,258.789,210.114z M258.789,446.205
		c0,23.025-43.025,48.25-105.434,48.25S47.92,469.23,47.92,446.205v-28.936c24.469,17.801,62.339,28.936,105.435,28.936
		c43.095,0,81.652-11.135,105.434-28.936V446.205z"/>
</g>
</svg>
