<?xml version="1.0" encoding="utf-8"?>
<!-- Generator: Adobe Illustrator 14.0.0, SVG Export Plug-In . SVG Version: 6.00 Build 43363)  -->
<!DOCTYPE svg PUBLIC "-//W3C//DTD SVG 1.1//EN" "http://www.w3.org/Graphics/SVG/1.1/DTD/svg11.dtd">
<svg version="1.1" id="Capa_1" xmlns="http://www.w3.org/2000/svg" xmlns:xlink="http://www.w3.org/1999/xlink" x="0px" y="0px"
	 width="511.626px" height="401.989px" viewBox="0 0 511.626 401.989" enable-background="new 0 0 511.626 401.989"
	 xml:space="preserve">
<g>
	<g>
		<path d="M49.106,123.909c6.472,4.567,25.981,18.131,58.528,40.686c32.548,22.553,57.482,39.92,74.803,52.1
			c1.903,1.335,5.946,4.236,12.131,8.71c6.186,4.478,11.326,8.093,15.416,10.853c4.093,2.758,9.041,5.852,14.849,9.275
			c5.806,3.424,11.279,5.996,16.418,7.699c5.14,1.719,9.898,2.57,14.275,2.57h0.287h0.288c4.377,0,9.137-0.855,14.276-2.57
			c5.138-1.703,10.615-4.281,16.416-7.699c5.805-3.43,10.752-6.52,14.846-9.275c4.093-2.76,9.229-6.375,15.417-10.853
			c6.185-4.478,10.231-7.375,12.135-8.71c17.509-12.18,62.052-43.11,133.615-92.79c13.894-9.703,25.502-21.411,34.827-35.116
			c9.332-13.699,13.993-28.07,13.993-43.105c0-12.564-4.523-23.319-13.565-32.264C489.02,4.472,478.312,0,465.944,0H45.679
			C31.024,0,19.746,4.949,11.847,14.845C3.949,24.742,0,37.114,0,51.958C0,63.95,5.236,76.944,15.703,90.933
			C26.169,104.923,37.307,115.916,49.106,123.909z"/>
		<path d="M483.072,154.455c-62.424,42.251-109.823,75.087-142.177,98.501c-10.85,7.99-19.65,14.229-26.409,18.699
			c-6.759,4.473-15.748,9.041-26.979,13.701c-11.229,4.668-21.69,6.996-31.399,6.996h-0.291h-0.287
			c-9.707,0-20.177-2.328-31.405-6.996c-11.228-4.66-20.223-9.229-26.98-13.701c-6.755-4.471-15.559-10.709-26.407-18.699
			c-25.697-18.842-72.995-51.68-141.896-98.501C17.987,147.227,8.375,138.942,0,129.617v226.685c0,12.57,4.471,23.32,13.418,32.266
			c8.945,8.949,19.701,13.422,32.264,13.422h420.266c12.563,0,23.315-4.473,32.261-13.422c8.949-8.945,13.421-19.689,13.421-32.266
			V129.617C503.441,138.749,493.927,147.034,483.072,154.455z"/>
	</g>
</g>
</svg>
