<?xml version="1.0" encoding="utf-8"?>
<!-- Generator: Adobe Illustrator 14.0.0, SVG Export Plug-In . SVG Version: 6.00 Build 43363)  -->
<!DOCTYPE svg PUBLIC "-//W3C//DTD SVG 1.1//EN" "http://www.w3.org/Graphics/SVG/1.1/DTD/svg11.dtd">
<svg version="1.1" id="Capa_1" xmlns="http://www.w3.org/2000/svg" xmlns:xlink="http://www.w3.org/1999/xlink" x="0px" y="0px"
	 width="135.334px" height="178px" viewBox="0 0 135.334 178" enable-background="new 0 0 135.334 178" xml:space="preserve">
<g>
	<path fill="#1988BA" d="M30.167,123.602l36.988,50.109l38.012-50.109C105.167,123.602,67.667,144.213,30.167,123.602z"/>
	<g>
		<g>
			<circle fill="#36A2EA" cx="65.656" cy="63.945" r="59.657"/>
			<g>
				<circle fill="#2E2527" cx="66.73" cy="62.733" r="18.868"/>
				<circle fill="#95CAE8" cx="53.917" cy="75.781" r="9.18"/>
				<path fill="#79777B" d="M53.917,66.602c-1.945,0-3.747,0.609-5.231,1.642c1.859,6.099,6.729,10.873,12.874,12.623
					c0.971-1.456,1.539-3.204,1.539-5.084C63.096,70.713,58.985,66.602,53.917,66.602z"/>
				<circle fill="#79777B" cx="74.824" cy="54.582" r="2.908"/>
			</g>
		</g>
		<path fill="#1988BA" d="M99.167,14.602c0,0,34.609,36.687-6.099,78.272l18.099,22.728c0,0,13.521-6.475,19.315-30.641
			C136.278,60.795,125.389,20.407,99.167,14.602z"/>
		<path fill="#1988BA" d="M36.167,115.602c0,0-34.609-36.688,6.099-78.272L24.167,14.602c0,0-13.521,6.474-19.315,30.64
			C-0.946,69.407,9.944,109.797,36.167,115.602z"/>
	</g>
</g>
<rect x="0" opacity="0.8" fill="#FFFFFF" width="135.334" height="178"/>
</svg>
