<?xml version="1.0" encoding="utf-8"?>
<!-- Generator: Adobe Illustrator 14.0.0, SVG Export Plug-In . SVG Version: 6.00 Build 43363)  -->
<!DOCTYPE svg PUBLIC "-//W3C//DTD SVG 1.1//EN" "http://www.w3.org/Graphics/SVG/1.1/DTD/svg11.dtd">
<svg version="1.1" id="Capa_1" xmlns="http://www.w3.org/2000/svg" xmlns:xlink="http://www.w3.org/1999/xlink" x="0px" y="0px"
	 width="31.979px" height="31.979px" viewBox="0 0 31.979 31.979" enable-background="new 0 0 31.979 31.979" xml:space="preserve">
<path d="M21.944,6.06V5.359c0-0.796-0.646-1.439-1.44-1.439H18.14c0.196-0.356,0.31-0.797,0.31-1.245C18.446,1.2,17.249,0,15.777,0
	c-1.472,0-2.669,1.2-2.669,2.673c0,0.448,0.112,0.889,0.309,1.245h-1.94c-0.796,0-1.441,0.645-1.441,1.439V6.06H6.822
	c-1.207,0-2.185,0.979-2.185,2.188v21.546c0,1.207,0.978,2.187,2.185,2.187h18.333c1.207,0,2.187-0.979,2.187-2.187V8.246
	c0-1.207-0.979-2.188-2.187-2.188L21.944,6.06L21.944,6.06z M14.187,2.674c0-0.878,0.713-1.594,1.589-1.594
	c0.877,0,1.591,0.716,1.591,1.594c0,0.502-0.234,0.933-0.601,1.245h-1.98C14.421,3.606,14.187,3.176,14.187,2.674z M25.155,28.492
	c0,0.74-0.602,1.344-1.344,1.344H8.166c-0.742,0-1.344-0.604-1.344-1.344V9.59c0-0.743,0.602-1.344,1.344-1.344h1.868
	c0,0.591,0.479,1.069,1.07,1.069h9.769c0.592,0,1.069-0.479,1.069-1.069h1.869c0.742,0,1.344,0.602,1.344,1.344V28.492
	L25.155,28.492z M20.733,16.107l-0.287-0.287c-0.315-0.315-0.834-0.315-1.149,0l-4.882,4.885l-1.733-1.731
	c-0.315-0.315-0.833-0.315-1.149,0l-0.288,0.287c-0.316,0.315-0.316,0.833,0,1.149l2.593,2.596c0.316,0.314,0.834,0.314,1.149,0
	l5.747-5.748C21.05,16.94,21.05,16.423,20.733,16.107z M15.99,27.421c-4.417,0-8.01-3.593-8.01-8.01c0-4.416,3.593-8.01,8.01-8.01
	c4.415,0,8.009,3.594,8.009,8.01C23.999,23.828,20.405,27.421,15.99,27.421L15.99,27.421z M15.99,13.059
	c-3.503,0-6.353,2.85-6.353,6.353s2.85,6.354,6.353,6.354c3.502,0,6.353-2.851,6.353-6.354S19.492,13.059,15.99,13.059L15.99,13.059
	z"/>
</svg>
