<?xml version="1.0" encoding="utf-8"?>
<!-- Generator: Adobe Illustrator 14.0.0, SVG Export Plug-In . SVG Version: 6.00 Build 43363)  -->
<!DOCTYPE svg PUBLIC "-//W3C//DTD SVG 1.1//EN" "http://www.w3.org/Graphics/SVG/1.1/DTD/svg11.dtd">
<svg version="1.1" id="Capa_1" xmlns="http://www.w3.org/2000/svg" xmlns:xlink="http://www.w3.org/1999/xlink" x="0px" y="0px"
	 width="47.256px" height="14.057px" viewBox="0 0 47.256 14.057" enable-background="new 0 0 47.256 14.057" xml:space="preserve">
<g>
	<g id="Layer_1_copy_5_">
		<path d="M9.787,2.005C9.622,1.674,9.361,1.4,9.037,1.195C8.699,0.988,8.3,0.844,7.844,0.758c-0.464-0.084-1-0.122-1.621-0.128
			L3.356,0.632c-0.299,0.004-0.591,0.235-0.66,0.523l-1.93,8.403c-0.069,0.283,0.117,0.521,0.415,0.521h1.373
			c0.299,0,0.594-0.229,0.659-0.521l0.471-2.041c0.063-0.283,0.357-0.521,0.658-0.521h0.394c1.679-0.002,2.979-0.345,3.913-1.031
			c0.938-0.688,1.401-1.598,1.401-2.724C10.05,2.749,9.968,2.335,9.787,2.005z M6.826,4.75C6.411,5.053,5.834,5.206,5.09,5.206
			H4.754c-0.299,0-0.481-0.236-0.417-0.524L4.75,2.897c0.058-0.286,0.359-0.522,0.654-0.521l0.45-0.003
			c0.524,0,0.926,0.091,1.193,0.267c0.266,0.174,0.398,0.451,0.396,0.818C7.452,4.016,7.238,4.445,6.826,4.75z M25.7,3.652
			l-5.47,9.251c-0.177,0.289-0.565,0.521-0.861,0.521l-1.422,0.002c-0.295,0-0.393-0.234-0.212-0.523l1.216-2.117
			c0,0,0.098-0.122,0.011-0.813c-0.187-1.252-1.121-6.567-1.121-6.567c-0.066-0.288,0.115-0.523,0.411-0.523l1.23-0.002
			c0.377,0,0.68,0.248,0.748,0.538l0.611,3.688l0.229,0.002c0.19-0.338,2.156-3.712,2.156-3.712
			c0.188-0.285,0.568-0.523,0.864-0.523c0,0,1.321,0.004,1.646,0C26.224,2.861,25.7,3.652,25.7,3.652z M34.717,2.035
			c-0.172-0.333-0.43-0.602-0.756-0.812c-0.334-0.208-0.729-0.354-1.191-0.438c-0.455-0.081-0.998-0.125-1.615-0.126l-2.87,0.002
			c-0.3,0.006-0.587,0.237-0.656,0.522L25.697,9.59c-0.069,0.285,0.122,0.521,0.414,0.521l1.375-0.002
			c0.292,0.002,0.591-0.231,0.66-0.521l0.465-2.041c0.067-0.284,0.362-0.523,0.66-0.521h0.394c1.681,0,2.983-0.346,3.922-1.031
			c0.927-0.692,1.396-1.6,1.396-2.727C34.976,2.777,34.891,2.362,34.717,2.035z M31.757,4.784c-0.414,0.299-0.991,0.45-1.73,0.45
			h-0.343c-0.295,0.003-0.485-0.236-0.42-0.522l0.416-1.781c0.062-0.285,0.358-0.524,0.655-0.521l0.445-0.003
			c0.527,0.003,0.924,0.09,1.193,0.267c0.27,0.176,0.396,0.452,0.399,0.817C32.376,4.049,32.169,4.478,31.757,4.784z M16.406,3.206
			c-0.519-0.292-1.336-0.438-2.454-0.438c-0.553,0-1.104,0.043-1.661,0.129c-0.411,0.063-0.451,0.075-0.704,0.13
			c-0.521,0.114-0.604,0.635-0.604,0.635l-0.168,0.691c-0.096,0.441,0.158,0.424,0.265,0.387c0.228-0.067,0.354-0.138,0.821-0.241
			c0.444-0.102,0.914-0.178,1.286-0.173c0.549,0,0.969,0.059,1.249,0.177c0.275,0.119,0.413,0.325,0.413,0.624l-0.023,0.193
			l-0.198,0.122c-0.779,0.049-1.342,0.121-2.024,0.22c-0.669,0.094-1.255,0.257-1.741,0.479c-0.523,0.229-0.911,0.539-1.183,0.932
			C9.418,7.468,9.287,7.947,9.287,8.509c0,0.527,0.189,0.966,0.559,1.304c0.371,0.332,0.861,0.494,1.447,0.494
			c0.371-0.002,0.658-0.031,0.862-0.08l0.665-0.229l0.563-0.313l0.519-0.342l0.007,0.01l-0.052,0.221l-0.003,0.01v0.002
			c-0.057,0.269,0.105,0.486,0.366,0.515l0.005,0.006h0.024h1.053H15.5l0.018-0.009c0.274-0.032,0.531-0.252,0.592-0.514L17.11,5.25
			l0.052-0.354l0.024-0.331C17.191,3.951,16.925,3.496,16.406,3.206z M14.193,8.077l-0.214,0.281l-0.54,0.279
			c-0.255,0.104-0.495,0.155-0.719,0.155c-0.338,0-0.603-0.051-0.781-0.149l-0.266-0.515c0-0.278,0.064-0.5,0.201-0.67l0.582-0.396
			c0.249-0.084,0.553-0.155,0.905-0.204c0.313-0.039,0.934-0.109,1.015-0.112l0.095,0.168C14.454,7.01,14.278,7.745,14.193,8.077z
			 M41.342,3.212c-0.521-0.292-1.338-0.439-2.452-0.439c-0.554,0-1.104,0.043-1.659,0.132c-0.412,0.061-0.453,0.073-0.707,0.127
			c-0.521,0.113-0.604,0.637-0.604,0.637l-0.168,0.689c-0.094,0.441,0.154,0.421,0.271,0.387c0.229-0.067,0.353-0.135,0.813-0.242
			c0.443-0.101,0.916-0.175,1.289-0.173c0.547,0,0.967,0.06,1.246,0.178c0.278,0.12,0.414,0.328,0.414,0.623l-0.021,0.192
			l-0.195,0.125c-0.787,0.047-1.353,0.119-2.027,0.219c-0.666,0.093-1.254,0.255-1.742,0.479c-0.521,0.231-0.914,0.54-1.182,0.934
			c-0.265,0.396-0.395,0.873-0.395,1.431c0,0.533,0.188,0.97,0.563,1.306c0.373,0.332,0.857,0.498,1.444,0.498
			c0.368-0.004,0.654-0.029,0.859-0.082l0.664-0.226l0.567-0.313l0.515-0.347l0.009,0.011l-0.048,0.223l-0.004,0.005l0.002,0.004
			c-0.063,0.268,0.102,0.489,0.365,0.514l0.002,0.006h0.022l0,0c0.174,0,0.771,0,1.058,0h0.192l0.021-0.008
			c0.271-0.033,0.526-0.253,0.584-0.518l1.004-4.327l0.053-0.355l0.029-0.332C42.128,3.956,41.866,3.503,41.342,3.212z
			 M39.133,8.084L38.91,8.368l-0.535,0.277C38.121,8.748,37.879,8.8,37.66,8.8c-0.349,0-0.606-0.05-0.781-0.15l-0.268-0.513
			c0-0.28,0.063-0.499,0.195-0.672c0.134-0.163,0.336-0.297,0.589-0.396c0.245-0.084,0.55-0.151,0.902-0.203
			c0.313-0.039,0.932-0.111,1.011-0.112l0.098,0.167C39.392,7.016,39.216,7.75,39.133,8.084z M46.491,1.251l0.004,0.001
			l-1.838,8.331l-0.066,0.101c-0.105,0.233-0.342,0.424-0.592,0.424h-1.276l-0.021-0.029c-0.244-0.036-0.402-0.23-0.346-0.487
			l-0.002-0.006l0.057-0.24L44.13,1.53l0.063-0.271l0.066-0.106c0.111-0.229,0.339-0.417,0.591-0.417h1.229
			C46.374,0.73,46.553,0.964,46.491,1.251z"/>
	</g>
</g>
</svg>
