<?xml version="1.0" encoding="utf-8"?>
<!-- Generator: Adobe Illustrator 14.0.0, SVG Export Plug-In . SVG Version: 6.00 Build 43363)  -->
<!DOCTYPE svg PUBLIC "-//W3C//DTD SVG 1.1//EN" "http://www.w3.org/Graphics/SVG/1.1/DTD/svg11.dtd">
<svg version="1.1" id="Capa_1" xmlns="http://www.w3.org/2000/svg" xmlns:xlink="http://www.w3.org/1999/xlink" x="0px" y="0px"
	 width="400px" height="595.281px" viewBox="0 0 400 595.281" enable-background="new 0 0 400 595.281" xml:space="preserve">
<g>
	<path d="M201.778,283.963c38.297,0,69.448-31.163,69.448-69.449c0-38.286-31.151-69.449-69.448-69.449
		s-69.449,31.163-69.449,69.449C132.329,252.8,163.481,283.963,201.778,283.963z M201.778,164.908
		c27.354,0,49.605,22.253,49.605,49.606s-22.253,49.607-49.605,49.607c-27.354,0-49.606-22.254-49.606-49.607
		S174.425,164.908,201.778,164.908z"/>
	<path d="M200.022,569.272l152.203-219.828c57.088-76.116,48.823-201.204-17.67-267.697
		c-35.935-35.945-83.716-55.738-134.533-55.738c-50.816,0-98.598,19.793-134.533,55.728c-66.503,66.493-74.768,191.601-17.897,267.4
		L200.022,569.272z M79.517,95.766c32.186-32.185,74.986-49.914,120.505-49.914c45.52,0,88.311,17.729,120.506,49.914
		c60.014,60.014,67.404,172.999,15.604,242.071l-136.11,196.572L63.692,337.54C12.102,268.764,19.494,155.78,79.517,95.766z"/>
</g>
</svg>
