<?xml version="1.0" encoding="utf-8"?>
<!-- Generator: Adobe Illustrator 14.0.0, SVG Export Plug-In . SVG Version: 6.00 Build 43363)  -->
<!DOCTYPE svg PUBLIC "-//W3C//DTD SVG 1.1//EN" "http://www.w3.org/Graphics/SVG/1.1/DTD/svg11.dtd">
<svg version="1.1" id="Capa_1" xmlns="http://www.w3.org/2000/svg" xmlns:xlink="http://www.w3.org/1999/xlink" x="0px" y="0px"
	 width="584px" height="595.281px" viewBox="0 0 584 595.281" enable-background="new 0 0 584 595.281" xml:space="preserve">
<path d="M572.98,542.207L431.302,394.855c36.428-43.306,56.387-97.791,56.387-154.512C487.689,107.82,379.869,0,247.345,0
	C114.821,0,7,107.82,7,240.344c0,132.524,107.821,240.346,240.344,240.346c49.751,0,97.162-15.007,137.697-43.492l142.754,148.471
	c5.967,6.195,13.991,9.613,22.592,9.613c8.141,0,15.863-3.104,21.726-8.746C584.569,574.548,584.965,554.673,572.98,542.207z
	 M247.345,62.698c97.956,0,177.646,79.69,177.646,177.646c0,97.956-79.69,177.646-177.646,177.646
	c-97.956,0-177.646-79.689-177.646-177.646C69.699,142.387,149.389,62.698,247.345,62.698z"/>
</svg>
