<?xml version="1.0" encoding="iso-8859-1"?>
<!DOCTYPE svg PUBLIC "-//W3C//DTD SVG 1.1//EN" "http://www.w3.org/Graphics/SVG/1.1/DTD/svg11.dtd">
<svg xmlns="http://www.w3.org/2000/svg" xmlns:xlink="http://www.w3.org/1999/xlink" version="1.1" viewBox="0 0 460.403 460.403" enable-background="new 0 0 460.403 460.403" width="512px" height="512px">
  <g>
    <path d="m233.556,231.749c1.953,1.953 4.512,2.929 7.071,2.929 2.559,0 5.118-0.977 7.071-2.929l10.606-10.606 10.606,10.606c1.953,1.953 4.512,2.929 7.071,2.929s5.118-0.977 7.071-2.929c3.905-3.905 3.905-10.237 0-14.142l-10.605-10.607 10.606-10.606c3.905-3.905 3.905-10.237 0-14.142-3.904-3.905-10.234-3.905-14.143,0l-10.606,10.606-10.606-10.606c-3.906-3.905-10.236-3.905-14.143,0-3.905,3.905-3.905,10.237 0,14.142l10.607,10.606-10.606,10.606c-3.906,3.906-3.906,10.237 0,14.143z" fill="#ffc80a"/>
    <path d="m329.071,166.619c-18.892-18.892-44.009-29.296-70.727-29.296-26.717,0-51.834,10.404-70.727,29.296-38.998,38.999-38.998,102.454 0,141.453 18.892,18.892 44.01,29.296 70.727,29.296 26.718,0 51.835-10.404 70.727-29.296s29.296-44.01 29.296-70.727-10.404-51.835-29.296-70.726zm-127.31,14.142c15.114-15.114 35.21-23.438 56.584-23.438 21.375,0 41.471,8.324 56.584,23.438 15.114,15.114 23.438,35.209 23.438,56.584 0,6.965-0.899,13.79-2.614,20.355h-154.759c-6.954-26.611-0.046-56.126 20.767-76.939zm56.584,136.606c-21.374,0-41.47-8.324-56.584-23.438-4.966-4.966-9.133-10.43-12.518-16.229h138.224c-3.429,5.851-7.616,11.308-12.538,16.229-15.114,15.114-35.209,23.438-56.584,23.438z" fill="#ffc80a"/>
    <path d="m451.386,386.841l-78.316-78.316c15.353-24.742 21.956-53.406 19.813-81.525h39.117c5.522,0 10-4.477 10-10v-186c0-5.523-4.478-10-10-10h-422c-5.522,0-10,4.477-10,10v186c0,5.523 4.478,10 10,10h113.808c-2.89,37.932 10.132,76.859 39.078,105.805 26.318,26.318 60.889,39.477 95.459,39.477 24.735,0 49.468-6.74 71.18-20.212l78.317,78.315c5.814,5.815 13.547,9.019 21.771,9.019s15.957-3.203 21.772-9.018c5.815-5.816 9.018-13.548 9.018-21.772s-3.202-15.957-9.017-21.773zm-431.386-179.841v-166h402v166h-32.154c-5.47-23.879-17.477-46.551-36.041-65.115-52.636-52.635-138.281-52.636-190.919,0-18.564,18.564-30.571,41.235-36.041,65.115h-106.845zm157.028,111.662c-44.839-44.838-44.839-117.796 0-162.634 22.419-22.419 51.868-33.629 81.317-33.629 29.448,0 58.897,11.209 81.316,33.629 44.839,44.838 44.839,117.796 0,162.634-44.838,44.839-117.796,44.838-162.633,0zm260.215,97.581c-2.038,2.038-4.747,3.161-7.63,3.161-2.882,0-5.591-1.122-7.629-3.161l-76.114-76.114c2.718-2.317 5.366-4.756 7.935-7.324s5.007-5.217 7.324-7.935l76.114,76.114c4.207,4.206 4.207,11.052-5.68434e-14,15.259z" fill="#ffc80a"/>
    <path d="m389,77c0-5.523-4.478-10-10-10h-316c-5.522,0-10,4.477-10,10s4.478,10 10,10h316c5.522,0 10-4.477 10-10z" fill="#ffc80a"/>
  </g>
</svg>
