<?xml version="1.0" encoding="utf-8"?>
<!-- Generator: Adobe Illustrator 14.0.0, SVG Export Plug-In . SVG Version: 6.00 Build 43363)  -->
<!DOCTYPE svg PUBLIC "-//W3C//DTD SVG 1.1//EN" "http://www.w3.org/Graphics/SVG/1.1/DTD/svg11.dtd">
<svg version="1.1" id="Capa_1" xmlns="http://www.w3.org/2000/svg" xmlns:xlink="http://www.w3.org/1999/xlink" x="0px" y="0px"
	 width="438.529px" height="375.765px" viewBox="0 0 438.529 375.765" enable-background="new 0 0 438.529 375.765"
	 xml:space="preserve">
<path d="M219.265,219.267c30.271,0,56.108-10.71,77.519-32.121c21.411-21.411,32.119-47.248,32.119-77.515
	c0-30.262-10.708-56.1-32.119-77.516C275.366,10.705,249.528,0,219.265,0c-30.263,0-56.105,10.705-77.515,32.115
	c-21.414,21.416-32.121,47.253-32.121,77.516c0,30.267,10.707,56.104,32.121,77.515
	C163.166,208.557,189.001,219.267,219.265,219.267z"/>
<path d="M18.268,375.765l401.998-0.249c0-1.561-0.025-6.086-0.064-7.594c0.034-1.102,0.064-2.206,0.064-3.332
	c-0.002-10.088-0.334-19.938-1.008-29.554c-0.668-9.609-2.002-19.985-3.997-31.121c-1.999-11.137-4.524-21.457-7.57-30.979
	c-3.046-9.514-7.14-18.793-12.278-27.836c-5.137-9.041-11.037-16.748-17.703-23.127c-6.666-6.376-14.801-11.465-24.405-15.271
	c-9.617-3.805-20.229-5.711-31.841-5.711c-1.711,0-5.709,2.046-11.99,6.139c-6.276,4.093-13.367,8.662-21.266,13.708
	c-7.898,5.037-18.183,9.609-30.834,13.695c-12.658,4.093-25.361,6.14-38.119,6.14c-12.752,0-25.456-2.047-38.112-6.14
	c-12.655-4.086-22.936-8.658-30.835-13.695c-7.898-5.046-14.987-9.614-21.267-13.708c-6.283-4.093-10.278-6.139-11.991-6.139
	c-11.61,0-22.222,1.906-31.833,5.711c-9.613,3.806-17.749,8.898-24.412,15.271c-6.661,6.379-12.562,14.086-17.699,23.127
	c-5.137,9.043-9.229,18.326-12.275,27.836c-3.045,9.521-5.568,19.842-7.566,30.979c-2,11.136-3.332,21.505-3.999,31.121
	c-0.666,9.616-0.998,19.466-0.998,29.554c0,1.032,0.03,2.044,0.059,3.058c-0.038,1.594-0.059,3.214-0.059,4.868"/>
</svg>
